<svg width="24" height="24" fill="none" xmlns="http://www.w3.org/2000/svg"><path d="M22.148 9.656h-6a.188.188 0 00-.187.188v1.125c0 .103.084.187.187.187h6a.188.188 0 00.188-.187V9.844a.188.188 0 00-.188-.188zm-3.14 3.188h-2.86a.188.188 0 00-.187.187v1.125c0 .103.084.188.187.188h2.86a.188.188 0 00.187-.188v-1.125a.188.188 0 00-.187-.187zm-7.821-5.285h-1.015a.262.262 0 00-.263.262v5.813c0 .084.04.161.108.21l3.49 2.546a.262.262 0 00.366-.056l.602-.823v-.002a.262.262 0 00-.059-.366l-2.97-2.147V7.821a.26.26 0 00-.26-.262z" fill="#09B451"/><path d="M18.863 15.795h-1.355a.386.386 0 00-.326.18 7.52 7.52 0 01-3.417 2.906 7.426 7.426 0 01-2.906.586 7.432 7.432 0 01-5.28-2.187A7.433 7.433 0 013.39 12a7.434 7.434 0 012.187-5.28 7.434 7.434 0 015.28-2.187 7.434 7.434 0 015.28 2.187c.4.398.746.834 1.044 1.305.07.113.195.18.326.18h1.355a.214.214 0 00.192-.311 9.166 9.166 0 00-8.086-5.056c-5.065-.063-9.272 4.083-9.281 9.143-.01 5.07 4.099 9.183 9.168 9.183a9.168 9.168 0 008.199-5.058.215.215 0 00-.192-.311z" fill="#09B451"/></svg>