<svg width="24" height="24" fill="none" xmlns="http://www.w3.org/2000/svg"><path d="M20.25 6.25H3.75a1 1 0 00-1 1v9.5a1 1 0 001 1h16.5a1 1 0 001-1v-9.5a1 1 0 00-1-1z" stroke="#fff" stroke-linecap="round" stroke-linejoin="round"/><path d="M17.75 20.25V3.75a1 1 0 00-1-1h-9.5a1 1 0 00-1 1v16.5a1 1 0 001 1h9.5a1 1 0 001-1z" stroke="#fff" stroke-linecap="round" stroke-linejoin="round"/><path d="M15.065 10.985l-2.47 3.275m2.47 0l-2.47-3.275m3.13-1.485H11.67l-1.94 5-1.455-3.515" stroke="#fff" stroke-linecap="round" stroke-linejoin="round"/></svg>