<svg width="24" height="24" fill="none" xmlns="http://www.w3.org/2000/svg"><g clip-path="url(#clip0_1_1627)"><path d="M10.543 23.91c-2.14-.277-4.344-1.195-5.95-2.48C.98 18.547-.66 13.992.279 9.469.68 7.516 1.727 5.46 3.067 3.98a11.66 11.66 0 013.508-2.687C8.34.398 10.027-.004 12.02-.004c1.429 0 2.578.188 3.894.637a12.009 12.009 0 017.461 7.457 12.18 12.18 0 01.383 6.434c-.36 1.719-1.286 3.652-2.426 5.05-.469.578-1.547 1.61-2.113 2.027a12.158 12.158 0 01-5.781 2.309c-.618.078-2.298.074-2.895 0zm3.27-1.003a11.178 11.178 0 007.254-4.536c2.027-2.847 2.57-6.668 1.425-10-.269-.781-.937-2.085-1.425-2.773-.543-.77-1.887-2.117-2.66-2.66-.75-.531-2.028-1.176-2.9-1.461a11.065 11.065 0 00-9.5 1.211 11.473 11.473 0 00-3.288 3.289 11.058 11.058 0 00-1.211 9.495c.288.871.933 2.153 1.46 2.903.547.77 1.891 2.117 2.66 2.66.692.485 1.993 1.152 2.774 1.426 1.74.59 3.598.744 5.41.446zm-4.157-4.024a4.221 4.221 0 01-1.581-.578c-.434-.278-3.708-3.485-3.867-3.786-.184-.343.136-.969.594-1.16l.214-.09-.66-.672c-.363-.371-.707-.766-.762-.875-.129-.25-.133-.785-.012-1.024a1.4 1.4 0 01.266-.329c.16-.132.175-.18.16-.516-.02-.297.008-.414.137-.636a1.15 1.15 0 01.953-.54c.21 0 .265-.027.355-.183.235-.41.906-.559 1.419-.309l.277.133.137-.133c.187-.171.562-.324.808-.324.492 0 1.187.567 1.187.965 0 .476-.433.559-.863.164-.285-.265-.43-.293-.547-.106-.058.09.082.258.922 1.106.84.844.992 1.024.992 1.184a.492.492 0 01-.472.465c-.152 0-.402-.22-1.555-1.368-1.176-1.172-1.39-1.36-1.484-1.3-.254.16-.168.277 1.207 1.656.746.75 1.36 1.413 1.36 1.476 0 .13-.118.368-.215.43a.568.568 0 01-.254.048c-.161.003-.407-.22-1.715-1.524C5.345 9.752 5.11 9.541 5.016 9.6c-.258.164-.172.277 1.325 1.781.816.817 1.5 1.547 1.519 1.626.043.14-.051.386-.175.472a.6.6 0 01-.262.047c-.16 0-.363-.175-1.445-1.258-1.044-1.043-1.286-1.257-1.419-1.245-.375.043-.242.21 1.695 2.152 1.68 1.684 1.895 1.922 1.895 2.098a.385.385 0 01-.168.329c-.301.238-.418.183-1.176-.551-.387-.371-.785-.73-.891-.797-.191-.117-.676-.168-.766-.074-.031.027.683.781 1.586 1.675 1.504 1.488 1.676 1.641 2.118 1.852a2.957 2.957 0 002.62.007c1.262-.601 1.962-2.062 1.618-3.387-.172-.66-.387-.976-1.254-1.871-1-1.024-1.231-1.305-1.477-1.797-.274-.55-.39-1.086-.39-1.754 0-.723.074-1.051.394-1.727.304-.644.941-1.32 1.57-1.668 1.235-.688 2.86-.629 4.039.141.235.152 1.082.95 2.137 2.008 1.566 1.57 1.746 1.774 1.746 1.953 0 .426-.348.899-.735.996-.144.039-.117.078.54.746.382.387.738.805.793.934.183.442.1.87-.235 1.223-.172.18-.195.242-.2.601-.003.316-.039.45-.164.63a1.11 1.11 0 01-.891.487c-.242 0-.289.024-.41.208-.274.422-.985.57-1.445.296l-.23-.136-.165.16c-.363.348-.95.395-1.394.11-.36-.227-.625-.543-.625-.743 0-.175.254-.465.41-.465.149 0 .348.117.575.329.226.215.422.215.453-.004.015-.117-.172-.34-.93-1.101-.797-.805-.95-.989-.95-1.145a.638.638 0 01.047-.254.517.517 0 01.477-.18c.078.02.738.629 1.46 1.351.727.727 1.364 1.32 1.423 1.32.16 0 .265-.16.191-.297-.035-.062-.649-.691-1.36-1.402-1.113-1.11-1.293-1.316-1.293-1.48a.595.595 0 01.048-.259c.066-.097.3-.214.433-.214.058 0 .793.683 1.633 1.52 1.539 1.53 1.652 1.616 1.813 1.363.058-.094-.153-.332-1.458-1.641-1.348-1.352-1.527-1.555-1.527-1.73a.45.45 0 01.141-.325c.285-.269.371-.214 1.758 1.165 1.313 1.308 1.43 1.394 1.59 1.144.059-.094-.207-.383-1.836-2.016-1.774-1.781-1.902-1.926-1.902-2.133 0-.313.18-.461.527-.437.063.003.438.32.825.699.39.378.812.734.937.789.246.101.531.117.653.039.117-.075-3.126-3.266-3.547-3.489a3.01 3.01 0 00-4.16 1.383c-.204.434-.23.563-.258 1.122-.024.527-.004.691.11 1.027.203.598.378.844 1.288 1.774.985 1.008 1.173 1.238 1.422 1.777.704 1.5.407 3.235-.753 4.391-.883.886-2.086 1.3-3.278 1.137z" fill="#fff"/></g><defs><clipPath id="clip0_1_1627"><path fill="#fff" d="M0 0h24v24H0z"/></clipPath></defs></svg>