<svg width="23" height="23" fill="none" xmlns="http://www.w3.org/2000/svg"><path fill-rule="evenodd" clip-rule="evenodd" d="M7.417.991C8.59.937 8.964.925 11.952.925c2.988 0 3.362.013 4.534.066 1.172.053 1.972.24 2.672.511.733.277 1.398.71 1.948 1.27.56.55.992 1.213 1.268 1.947.272.7.458 1.5.512 2.67.054 1.175.066 1.55.066 4.536 0 2.988-.013 3.362-.066 4.535-.053 1.17-.24 1.97-.512 2.67a5.396 5.396 0 01-1.268 1.95c-.55.56-1.215.991-1.948 1.267-.7.272-1.5.458-2.67.512-1.174.054-1.548.066-4.536.066-2.988 0-3.362-.013-4.535-.066-1.17-.053-1.97-.24-2.67-.512a5.397 5.397 0 01-1.949-1.268 5.392 5.392 0 01-1.269-1.948c-.27-.7-.457-1.5-.51-2.67-.055-1.175-.067-1.549-.067-4.536 0-2.988.013-3.362.066-4.534.053-1.172.24-1.972.511-2.672A5.396 5.396 0 012.8 2.771a5.392 5.392 0 011.947-1.269c.7-.27 1.5-.457 2.67-.51h.001zm8.98 1.98c-1.16-.053-1.508-.064-4.445-.064-2.937 0-3.285.011-4.445.064-1.073.05-1.655.228-2.043.38-.513.2-.88.436-1.265.821a3.412 3.412 0 00-.822 1.265c-.15.388-.33.97-.379 2.043-.053 1.16-.064 1.508-.064 4.445 0 2.937.011 3.285.064 4.445.05 1.073.228 1.655.38 2.043a3.4 3.4 0 00.821 1.265c.355.365.788.646 1.265.822.388.151.97.33 2.043.38 1.16.052 1.507.063 4.445.063 2.938 0 3.285-.01 4.445-.064 1.073-.049 1.655-.228 2.043-.379.513-.2.88-.437 1.265-.822.365-.355.646-.788.822-1.265.151-.388.33-.97.38-2.043.052-1.16.063-1.508.063-4.445 0-2.937-.01-3.285-.064-4.445-.049-1.073-.228-1.655-.379-2.043-.2-.513-.437-.88-.822-1.265a3.413 3.413 0 00-1.265-.822c-.388-.15-.97-.33-2.043-.379zm-5.85 12.345A3.67 3.67 0 1013.19 8.47a3.67 3.67 0 00-2.642 6.846zM7.954 7.927a5.654 5.654 0 117.997 7.997 5.654 5.654 0 01-7.997-7.997zm10.906-.814a1.336 1.336 0 10-1.834-1.944 1.336 1.336 0 001.834 1.944z" fill="#0AC75A" fill-opacity=".8"/></svg>