<svg width="20" height="21" fill="none" xmlns="http://www.w3.org/2000/svg"><path fill-rule="evenodd" clip-rule="evenodd" d="M8.028 7.894h3.537v1.85c.51-1.064 1.816-2.02 3.779-2.02 3.763 0 4.656 2.118 4.656 6.004v7.197h-3.81v-6.312c0-2.213-.509-3.46-1.806-3.46-1.8 0-2.547 1.344-2.547 3.46v6.312h-3.81V7.895zM1.495 20.755h3.81V7.725h-3.81v13.03zM5.85 3.475c0 .336-.063.668-.186.977a2.54 2.54 0 01-.53.825c-.461.48-1.085.75-1.734.748-.648 0-1.27-.269-1.731-.747a2.559 2.559 0 01-.53-.826 2.659 2.659 0 01-.187-.977 2.6 2.6 0 01.718-1.803A2.401 2.401 0 013.4.925c.65 0 1.272.27 1.732.747.46.478.717 1.126.717 1.803z" fill="#0AC75A" fill-opacity=".8"/></svg>