<svg width="21" height="23" fill="none" xmlns="http://www.w3.org/2000/svg"><path d="M10.476.925C4.691.925 0 5.851 0 11.925c0 6.075 4.69 11 10.476 11 5.786 0 10.476-4.925 10.476-11 0-6.074-4.69-11-10.476-11zm5.035 8.292c.007.115.007.236.007.354 0 3.604-2.615 7.756-7.392 7.756a7.113 7.113 0 01-3.99-1.223c.211.025.412.035.627.035a5.055 5.055 0 003.225-1.164c-1.141-.025-2.1-.81-2.427-1.89.4.06.76.06 1.171-.05a2.577 2.577 0 01-1.494-.948 2.811 2.811 0 01-.585-1.728v-.035c.344.204.749.33 1.172.347a2.686 2.686 0 01-.85-.982 2.838 2.838 0 01-.307-1.287c0-.508.126-.972.353-1.375A7.453 7.453 0 007.409 9.05a7.1 7.1 0 002.967.828c-.367-1.854.951-3.354 2.537-3.354.748 0 1.422.329 1.896.859a4.983 4.983 0 001.649-.656 2.695 2.695 0 01-1.141 1.5 4.946 4.946 0 001.496-.424 5.602 5.602 0 01-1.302 1.414z" fill="#0AC75A" fill-opacity=".8"/></svg>