<svg width="23" height="23" viewBox="0 0 23 23" fill="none" xmlns="http://www.w3.org/2000/svg">
<path fill-rule="evenodd" clip-rule="evenodd" d="M7.41739 0.991293C8.59039 0.937293 8.96439 0.925293 11.9524 0.925293C14.9404 0.925293 15.3144 0.938293 16.4864 0.991293C17.6584 1.04429 18.4584 1.23129 19.1584 1.50229C19.8914 1.77929 20.5564 2.21229 21.1064 2.77229C21.6664 3.32129 22.0984 3.98529 22.3744 4.71929C22.6464 5.41929 22.8324 6.21929 22.8864 7.38929C22.9404 8.56429 22.9524 8.93829 22.9524 11.9253C22.9524 14.9133 22.9394 15.2873 22.8864 16.4603C22.8334 17.6303 22.6464 18.4303 22.3744 19.1303C22.0984 19.8644 21.6657 20.5295 21.1064 21.0793C20.5564 21.6393 19.8914 22.0713 19.1584 22.3473C18.4584 22.6193 17.6584 22.8053 16.4884 22.8593C15.3144 22.9133 14.9404 22.9253 11.9524 22.9253C8.96439 22.9253 8.59039 22.9123 7.41739 22.8593C6.24739 22.8063 5.44739 22.6193 4.74739 22.3473C4.01331 22.0713 3.34821 21.6385 2.79839 21.0793C2.23877 20.53 1.80571 19.8652 1.52939 19.1313C1.25839 18.4313 1.07239 17.6313 1.01839 16.4613C0.964393 15.2863 0.952393 14.9123 0.952393 11.9253C0.952393 8.93729 0.965393 8.56329 1.01839 7.39129C1.07139 6.21929 1.25839 5.41929 1.52939 4.71929C1.80612 3.98537 2.23951 3.32061 2.79939 2.77129C3.34843 2.21179 4.01286 1.77874 4.74639 1.50229C5.44639 1.23129 6.24639 1.04529 7.41639 0.991293H7.41739ZM16.3974 2.97129C15.2374 2.91829 14.8894 2.90729 11.9524 2.90729C9.01539 2.90729 8.66739 2.91829 7.50739 2.97129C6.43439 3.02029 5.85239 3.19929 5.46439 3.35029C4.95139 3.55029 4.58439 3.78729 4.19939 4.17229C3.83444 4.52734 3.55357 4.95958 3.37739 5.43729C3.22639 5.82529 3.04739 6.40729 2.99839 7.48029C2.94539 8.64029 2.93439 8.98829 2.93439 11.9253C2.93439 14.8623 2.94539 15.2103 2.99839 16.3703C3.04739 17.4433 3.22639 18.0253 3.37739 18.4133C3.55339 18.8903 3.83439 19.3233 4.19939 19.6783C4.55439 20.0433 4.98739 20.3243 5.46439 20.5003C5.85239 20.6513 6.43439 20.8303 7.50739 20.8793C8.66739 20.9323 9.01439 20.9433 11.9524 20.9433C14.8904 20.9433 15.2374 20.9323 16.3974 20.8793C17.4704 20.8303 18.0524 20.6513 18.4404 20.5003C18.9534 20.3003 19.3204 20.0633 19.7054 19.6783C20.0704 19.3233 20.3514 18.8903 20.5274 18.4133C20.6784 18.0253 20.8574 17.4433 20.9064 16.3703C20.9594 15.2103 20.9704 14.8623 20.9704 11.9253C20.9704 8.98829 20.9594 8.64029 20.9064 7.48029C20.8574 6.40729 20.6784 5.82529 20.5274 5.43729C20.3274 4.92429 20.0904 4.55729 19.7054 4.17229C19.3503 3.80736 18.9181 3.5265 18.4404 3.35029C18.0524 3.19929 17.4704 3.02029 16.3974 2.97129ZM10.5474 15.3163C11.3321 15.6429 12.2058 15.687 13.0193 15.441C13.8329 15.195 14.5358 14.6742 15.008 13.9675C15.4802 13.2609 15.6924 12.4122 15.6084 11.5664C15.5244 10.7206 15.1494 9.93027 14.5474 9.33029C14.1636 8.94677 13.6996 8.65311 13.1887 8.47044C12.6778 8.28777 12.1328 8.22065 11.5929 8.27391C11.053 8.32716 10.5315 8.49947 10.0662 8.77842C9.60085 9.05738 9.20314 9.43604 8.9017 9.88714C8.60025 10.3383 8.40258 10.8506 8.32291 11.3873C8.24324 11.9239 8.28354 12.4716 8.44093 12.9908C8.59832 13.51 8.86887 13.9879 9.23311 14.39C9.59735 14.7921 10.0462 15.1085 10.5474 15.3163ZM7.95439 7.92729C8.47942 7.40227 9.10271 6.9858 9.78869 6.70165C10.4747 6.41751 11.2099 6.27127 11.9524 6.27127C12.6949 6.27127 13.4301 6.41751 14.1161 6.70165C14.8021 6.9858 15.4254 7.40227 15.9504 7.92729C16.4754 8.45232 16.8919 9.07561 17.176 9.76159C17.4602 10.4476 17.6064 11.1828 17.6064 11.9253C17.6064 12.6678 17.4602 13.403 17.176 14.089C16.8919 14.775 16.4754 15.3983 15.9504 15.9233C14.8901 16.9836 13.4519 17.5793 11.9524 17.5793C10.4529 17.5793 9.01473 16.9836 7.95439 15.9233C6.89406 14.863 6.29837 13.4248 6.29837 11.9253C6.29837 10.4258 6.89406 8.98763 7.95439 7.92729ZM18.8604 7.11329C18.9905 6.99056 19.0947 6.84297 19.1667 6.67927C19.2387 6.51556 19.2772 6.33906 19.2798 6.16022C19.2824 5.98138 19.2491 5.80384 19.1819 5.6381C19.1146 5.47237 19.0148 5.3218 18.8884 5.19533C18.7619 5.06886 18.6113 4.96905 18.4456 4.90181C18.2798 4.83457 18.1023 4.80127 17.9235 4.80388C17.7446 4.80648 17.5681 4.84495 17.4044 4.91699C17.2407 4.98903 17.0931 5.09319 16.9704 5.22329C16.7317 5.47632 16.601 5.81241 16.6061 6.16022C16.6112 6.50803 16.7516 6.84017 16.9975 7.08614C17.2435 7.3321 17.5757 7.47252 17.9235 7.47759C18.2713 7.48266 18.6074 7.35198 18.8604 7.11329Z" fill="#0AC75A" fill-opacity="0.8"/>
</svg>
