<svg width="20" height="21" viewBox="0 0 20 21" fill="none" xmlns="http://www.w3.org/2000/svg">
<path fill-rule="evenodd" clip-rule="evenodd" d="M8.02763 7.89429H11.5648V9.74429C12.0743 8.68029 13.381 7.72429 15.3438 7.72429C19.1067 7.72429 20 9.84229 20 13.7283V20.9253H16.1905V14.6133C16.1905 12.4003 15.681 11.1523 14.3838 11.1523C12.5848 11.1523 11.8372 12.4973 11.8372 14.6123V20.9253H8.02763V7.89429ZM1.49525 20.7553H5.30477V7.72429H1.49525V20.7553ZM5.85049 3.47529C5.85063 3.81057 5.7873 4.14253 5.66419 4.45188C5.54108 4.76123 5.36063 5.04181 5.13334 5.27729C4.67277 5.75792 4.04935 6.02695 3.40001 6.02529C2.75181 6.02484 2.12983 5.75649 1.66858 5.27829C1.44212 5.04201 1.26228 4.76112 1.13939 4.45172C1.01649 4.14233 0.952944 3.81052 0.952393 3.47529C0.952393 2.79829 1.20954 2.15029 1.66954 1.67229C2.13038 1.19345 2.75262 0.924994 3.40096 0.925293C4.05049 0.925293 4.67334 1.19429 5.13334 1.67229C5.59239 2.15029 5.85049 2.79829 5.85049 3.47529Z" fill="#0AC75A" fill-opacity="0.8"/>
</svg>
